# xmcd CD database file
#
# Track frame offsets:
#	150
#	21507
#	43460
#	64797
#	82415
#	102130
#	124350
#	144947
#	165110
#	184282
#	206265
#
# Disc length: 2855 seconds
#
# Revision: 0
# Processed by: cddbd v1.5.1PL0 Copyright (c) Steve Scherf et al.
# Submitted via: CDex 1.51
#
DISCID=9d0b250b
DTITLE=TekNeek - JoyRide
DYEAR=2003
DGENRE=Jazz
TTITLE0=Smooth Groove
TTITLE1=Sweet Nita
TTITLE2=Cruisin
TTITLE3=I Need You
TTITLE4=JoyRide
TTITLE5=K.I.S.
TTITLE6=Playtime
TTITLE7=Lay It On Me
TTITLE8=Straight To The Point
TTITLE9=Say Amen
TTITLE10=Straight Up (reprise)
EXTD=YEAR: 2003
EXTT0=
EXTT1=
EXTT2=
EXTT3=
EXTT4=
EXTT5=
EXTT6=
EXTT7=
EXTT8=
EXTT9=
EXTT10=
PLAYORDER=
